# xmcd CD database file
#
# Track frame offsets:
#	150
#	12723
#	24442
#	37575
#	48707
#	61919
#	71810
#	86620
#	96918
#	107876
#	118222
#	129660
#	144903
#	153370
#	168400
#	181679
#	194245
#	206627
#	222910
#	236229
#	246919
#	260828
#	271594
#	286330
#	297434
#	309069
#	321110
#	330751
#
# Disc length: 4640 seconds
#
# Revision: 0
# Processed by: cddbd v1.5.2PL0 Copyright (c) Steve Scherf et al.
# Submitted via: CDex 1.73
#
DISCID=a2121e1c
DTITLE=In the style of... - a Shadows Tribute (disc1)
DYEAR=2005
DGENRE=Blues
TTITLE0=01 - Atlantis
TTITLE1=02 - Zambesi
TTITLE2=03 - Walk Don't Run
TTITLE3=04 - Shadoogie
TTITLE4=05 - Turn Around And Touch Me
TTITLE5=06 - Peace Pipe
TTITLE6=07 - This Ole House
TTITLE7=08 - Gonzales
TTITLE8=09 - Maid Marrion's Theme
TTITLE9=10 - The Warlord
TTITLE10=11 - Midnight
TTITLE11=12 - Moonlight Shadow
TTITLE12=13 - 36-24-36
TTITLE13=14 - South Of The Border
TTITLE14=15 - Guitar Tango
TTITLE15=16 - Blue Star
TTITLE16=17 - The Miracle
TTITLE17=18 - Parisienne Walkways
TTITLE18=19 - Stardust
TTITLE19=20 - Brazil
TTITLE20=21 - Maria Elena
TTITLE21=22 - The Girls
TTITLE22=23 - The Little Princess
TTITLE23=24 - The Frightened City
TTITLE24=25 - Theme From Shane
TTITLE25=26 - Back Home
TTITLE26=27 - The Lost City
TTITLE27=28 - Theme From Missing
EXTD=YEAR: 2005
EXTT0=
EXTT1=
EXTT2=
EXTT3=
EXTT4=
EXTT5=
EXTT6=
EXTT7=
EXTT8=
EXTT9=
EXTT10=
EXTT11=
EXTT12=
EXTT13=
EXTT14=
EXTT15=
EXTT16=
EXTT17=
EXTT18=
EXTT19=
EXTT20=
EXTT21=
EXTT22=
EXTT23=
EXTT24=
EXTT25=
EXTT26=
EXTT27=
PLAYORDER=
